<?xml version="1.0" encoding="UTF-8" standalone="no"?>
<svg
   xmlns:dc="http://purl.org/dc/elements/1.1/"
   xmlns:cc="http://creativecommons.org/ns#"
   xmlns:rdf="http://www.w3.org/1999/02/22-rdf-syntax-ns#"
   xmlns:svg="http://www.w3.org/2000/svg"
   xmlns="http://www.w3.org/2000/svg"
   xmlns:sodipodi="http://sodipodi.sourceforge.net/DTD/sodipodi-0.dtd"
   xmlns:inkscape="http://www.inkscape.org/namespaces/inkscape"
   width="221.42863"
   height="64"
   viewBox="0 0 58.586327 16.933333"
   version="1.1"
   id="svg8"
   inkscape:version="1.0.1 (3bc2e813f5, 2020-09-07)"
   sodipodi:docname="dibujo.svg"
   inkscape:export-filename="D:\Mis documentos\Mis imagenes\photoshop\mis escapes\dibujo.png"
   inkscape:export-xdpi="96"
   inkscape:export-ydpi="96">
  <defs
     id="defs2" />
  <sodipodi:namedview
     id="base"
     pagecolor="#3f3f46"
     bordercolor="#666666"
     borderopacity="1.0"
     inkscape:pageopacity="0"
     inkscape:pageshadow="2"
     inkscape:zoom="2.8284272"
     inkscape:cx="99.498147"
     inkscape:cy="37.638184"
     inkscape:document-units="mm"
     inkscape:current-layer="layer2"
     inkscape:document-rotation="0"
     showgrid="true"
     inkscape:snap-intersection-paths="true"
     inkscape:object-paths="true"
     inkscape:snap-smooth-nodes="true"
     inkscape:snap-midpoints="true"
     inkscape:snap-object-midpoints="true"
     inkscape:snap-center="true"
     inkscape:snap-text-baseline="true"
     inkscape:snap-bbox="true"
     inkscape:bbox-paths="true"
     inkscape:bbox-nodes="true"
     inkscape:snap-bbox-edge-midpoints="true"
     inkscape:snap-bbox-midpoints="true"
     inkscape:snap-global="true"
     units="px"
     inkscape:snap-grids="true"
     inkscape:snap-to-guides="false"
     showguides="true"
     inkscape:guide-bbox="true"
     inkscape:window-width="1920"
     inkscape:window-height="1057"
     inkscape:window-x="1912"
     inkscape:window-y="-8"
     inkscape:window-maximized="1">
    <inkscape:grid
       type="xygrid"
       id="grid20"
       empspacing="5"
       originx="37.154544"
       originy="-4.0999999e-06" />
    <sodipodi:guide
       position="49.854543,3.9780808e-06"
       orientation="0,-48"
       id="guide1218" />
    <sodipodi:guide
       position="37.154543,3.9780808e-06"
       orientation="-48,0"
       id="guide1220" />
    <sodipodi:guide
       position="52.546308,8.4666705"
       orientation="0,1"
       id="guide1228"
       inkscape:label=""
       inkscape:locked="false"
       inkscape:color="rgb(0,0,255)" />
  </sodipodi:namedview>
  <metadata
     id="metadata5">
    <rdf:RDF>
      <cc:Work
         rdf:about="">
        <dc:format>image/svg+xml</dc:format>
        <dc:type
           rdf:resource="http://purl.org/dc/dcmitype/StillImage" />
        <dc:title />
      </cc:Work>
    </rdf:RDF>
  </metadata>
  <g
     inkscape:groupmode="layer"
     id="layer2"
     inkscape:label="Capa 2"
     transform="translate(37.154546)">
    <rect
       style="display:inline;opacity:1;fill:#db2878;fill-opacity:1;stroke:none;stroke-width:2.95812;stroke-linecap:round;stroke-linejoin:miter;stroke-miterlimit:4;stroke-dasharray:none;stroke-opacity:1;paint-order:normal"
       id="rect1306-0"
       width="6.614584"
       height="1.5875"
       x="13.756788"
       y="7.6729159" />
    <path
       id="path1429-3"
       style="display:inline;opacity:1;fill:#db2878;fill-opacity:1;stroke:none;stroke-width:2.66232;stroke-linecap:round;stroke-linejoin:miter;stroke-miterlimit:4;stroke-dasharray:none;stroke-opacity:1;paint-order:normal"
       d="m 17.732254,6.0854154 2.11925,2.38125 -2.11925,2.3812496 h 1.581299 l 0.995804,-1.1193116 5.29e-4,5.29e-4 0.329696,-0.371036 0.792199,-0.890385 -5.02e-4,-0.001 5.02e-4,-10e-4 -0.792199,-0.890389 -0.329696,-0.371037 -5.29e-4,5.29e-4 -0.995804,-1.119311 z" />
    <path
       d="M 9.3995148,9.6884524 H 7.8762875 V 5.3271964 L 6.7757301,8.1574194 H 5.719039 L 4.6184893,5.3271964 v 4.361256 h -1.443487 v -6.51345 H 4.953441 l 1.3358124,3.267661 1.3318321,-3.267661 h 1.7784293 z"
       style="font-style:normal;font-variant:normal;font-weight:bold;font-stretch:normal;font-size:10.5833px;line-height:1.25;font-family:Verdana;-inkscape-font-specification:'Verdana Bold';display:inline;fill:#db2777;fill-opacity:1;stroke:none;stroke-width:0.213837"
       id="path1449-1" />
    <path
       d="M 12.170837,14.022919 H 7.8762875 V 7.8618404 h 4.2945495 v 1.191665 H 9.3995148 v 1.0633966 h 2.5719482 v 1.191666 H 9.3995148 v 1.522683 h 2.7713222 z"
       style="font-style:normal;font-variant:normal;font-weight:bold;font-stretch:normal;font-size:10.5833px;line-height:1.25;font-family:Verdana;-inkscape-font-specification:'Verdana Bold';display:inline;fill:#db2777;fill-opacity:1;stroke:none;stroke-width:0.207972"
       id="path1451-5" />
    <path
       id="path1464-8"
       style="display:inline;opacity:1;fill:#db2777;fill-opacity:1;stroke:none;stroke-width:2.64599;stroke-linecap:round;stroke-linejoin:miter;stroke-miterlimit:4;stroke-dasharray:none;stroke-opacity:1;paint-order:normal"
       d="M 2.3333333e-6,2e-6 V 1.5875024 16.933335 H 1.5875023 16.933335 v -1.322916 -3.175 -1.5875 h -1.5875 v 1.5875 3.175 H 1.5875023 V 1.5875024 H 15.345835 v 3.704166 0.79375 h 1.5875 V 5.2916684 2e-6 H 15.610419 1.5875023 Z" />
    <g
       aria-label="MIS
ESCAPES"
       id="text842"
       style="font-style:normal;font-variant:normal;font-weight:normal;font-stretch:normal;font-size:8.62418px;line-height:0.95;font-family:'Source Sans Pro';-inkscape-font-specification:'Source Sans Pro';fill:#db2777;fill-opacity:1;stroke:none;stroke-width:0.269929;stroke-miterlimit:4;stroke-dasharray:none">
      <path
         d="M -16.973997,7.3139539 V 1.6909886 h 1.388493 l 0.905539,2.5010122 q 0.08624,0.2501012 0.163859,0.5174508 0.07762,0.2587254 0.16386,0.5174508 h 0.0345 q 0.08624,-0.2587254 0.155236,-0.5174508 0.07762,-0.2673496 0.163859,-0.5174508 l 0.888291,-2.5010122 h 1.379868 v 5.6229653 h -1.15564 v -2.061179 q 0,-0.2069803 0.01725,-0.4570815 0.01725,-0.2501013 0.04312,-0.5002025 0.02587,-0.2587254 0.05175,-0.5002024 0.02587,-0.2501012 0.05174,-0.4570815 h -0.0345 l -0.457082,1.3367478 -0.802048,2.1474208 h -0.698559 l -0.80205,-2.1474208 -0.448457,-1.3367478 h -0.0345 q 0.02587,0.2069803 0.05175,0.4570815 0.02587,0.241477 0.05175,0.5002024 0.02587,0.2501012 0.04312,0.5002025 0.01725,0.2501012 0.01725,0.4570815 v 2.061179 z"
         style="font-style:normal;font-variant:normal;font-weight:bold;font-stretch:normal;font-size:8.62418px;font-family:'Source Sans Pro';-inkscape-font-specification:'Source Sans Pro Bold';text-align:end;text-anchor:end;fill:#db2777;fill-opacity:1;stroke-width:0.269929;stroke-miterlimit:4;stroke-dasharray:none"
         id="path958" />
      <path
         d="M -10.402379,7.3139539 V 1.6909886 h 1.2677541 v 5.6229653 z"
         style="font-style:normal;font-variant:normal;font-weight:bold;font-stretch:normal;font-size:8.62418px;font-family:'Source Sans Pro';-inkscape-font-specification:'Source Sans Pro Bold';text-align:end;text-anchor:end;fill:#db2777;fill-opacity:1;stroke-width:0.269929;stroke-miterlimit:4;stroke-dasharray:none"
         id="path960" />
      <path
         d="m -6.0903009,7.417444 q -0.5519475,0 -1.103895,-0.1983561 Q -7.7375192,7.0121076 -8.1687282,6.6067711 L -7.4442971,5.735729 q 0.3018463,0.2587254 0.6640618,0.4225848 0.3708397,0.1638594 0.7244311,0.1638594 0.3967123,0 0.5864443,-0.1466111 0.1983561,-0.146611 0.1983561,-0.3967122 0,-0.1293627 -0.060369,-0.2242287 -0.051745,-0.094866 -0.1638594,-0.1638594 -0.1034901,-0.077618 -0.2587254,-0.1379869 -0.146611,-0.068993 -0.3277188,-0.1466111 L -6.814732,4.7956934 Q -7.0303365,4.7094516 -7.2373168,4.5714647 -7.435673,4.4334778 -7.5995324,4.25237 -7.7547676,4.0626381 -7.8496336,3.821161 q -0.094866,-0.2501012 -0.094866,-0.5605716 0,-0.3449672 0.1466111,-0.6468135 0.1466111,-0.3104705 0.4139606,-0.5346992 0.2673496,-0.2328528 0.6295652,-0.3622155 0.3708397,-0.1293627 0.8106729,-0.1293627 0.4915782,0 0.9659081,0.1897319 0.4829541,0.189732 0.8451696,0.5519475 L -4.7794256,3.1312267 Q -5.0553993,2.9156222 -5.3313731,2.8035078 -5.6073468,2.6827693 -5.9436898,2.6827693 q -0.3277189,0 -0.526075,0.1379869 -0.189732,0.1293627 -0.189732,0.3708397 0,0.1293627 0.060369,0.2242287 0.068993,0.086242 0.1811078,0.1638594 0.1207385,0.068993 0.2759737,0.1379869 0.1552353,0.060369 0.336343,0.1379869 l 0.7244311,0.2932221 q 0.5174508,0.2069803 0.8106729,0.5691958 0.3018463,0.3622156 0.3018463,0.957284 0,0.3535914 -0.146611,0.672686 -0.1379869,0.3104705 -0.4139606,0.5519475 -0.2673496,0.2328529 -0.6640619,0.379464 -0.3967123,0.1379868 -0.8969144,0.1379868 z"
         style="font-style:normal;font-variant:normal;font-weight:bold;font-stretch:normal;font-size:8.62418px;font-family:'Source Sans Pro';-inkscape-font-specification:'Source Sans Pro Bold';text-align:end;text-anchor:end;fill:#db2777;fill-opacity:1;stroke-width:0.269929;stroke-miterlimit:4;stroke-dasharray:none"
         id="path962" />
      <path
         d="M -37.154546,15.506925 V 9.8839594 h 3.518665 v 1.0693986 h -2.250911 v 1.129767 h 1.914568 v 1.060774 h -1.914568 v 1.293627 h 2.337153 v 1.069399 z"
         style="font-style:normal;font-variant:normal;font-weight:bold;font-stretch:normal;font-size:8.62418px;font-family:'Source Sans Pro';-inkscape-font-specification:'Source Sans Pro Bold';text-align:end;text-anchor:end;fill:#db2777;fill-opacity:1;stroke-width:0.269929;stroke-miterlimit:4;stroke-dasharray:none"
         id="path964" />
      <path
         d="m -30.712297,15.610415 q -0.551948,0 -1.103895,-0.198356 -0.543324,-0.206981 -0.974533,-0.612317 l 0.724431,-0.871042 q 0.301847,0.258725 0.664062,0.422585 0.37084,0.163859 0.724431,0.163859 0.396713,0 0.586445,-0.146611 0.198356,-0.146611 0.198356,-0.396712 0,-0.129363 -0.06037,-0.224229 -0.05175,-0.09487 -0.163859,-0.163859 -0.10349,-0.07762 -0.258725,-0.137987 -0.146611,-0.06899 -0.327719,-0.146611 l -0.733056,-0.310471 q -0.215604,-0.08624 -0.422584,-0.224229 -0.198356,-0.137986 -0.362216,-0.319094 -0.155235,-0.189732 -0.250101,-0.431209 -0.09487,-0.250101 -0.09487,-0.560572 0,-0.344967 0.146611,-0.646813 0.146611,-0.310471 0.413961,-0.5347 0.267349,-0.232852 0.629565,-0.3622151 0.370839,-0.1293627 0.810673,-0.1293627 0.491578,0 0.965908,0.189732 0.482954,0.1897318 0.845169,0.5519478 l -0.646813,0.802048 q -0.275974,-0.215604 -0.551948,-0.327718 -0.275973,-0.120739 -0.612316,-0.120739 -0.327719,0 -0.526075,0.137987 -0.189732,0.129363 -0.189732,0.37084 0,0.129362 0.06037,0.224228 0.06899,0.08624 0.181108,0.16386 0.120738,0.06899 0.275974,0.137987 0.155235,0.06037 0.336343,0.137987 l 0.724431,0.293222 q 0.51745,0.20698 0.810673,0.569195 0.301846,0.362216 0.301846,0.957284 0,0.353592 -0.146611,0.672686 -0.137987,0.310471 -0.413961,0.551948 -0.267349,0.232853 -0.664062,0.379464 -0.396712,0.137987 -0.896914,0.137987 z"
         style="font-style:normal;font-variant:normal;font-weight:bold;font-stretch:normal;font-size:8.62418px;font-family:'Source Sans Pro';-inkscape-font-specification:'Source Sans Pro Bold';text-align:end;text-anchor:end;fill:#db2777;fill-opacity:1;stroke-width:0.269929;stroke-miterlimit:4;stroke-dasharray:none"
         id="path966" />
      <path
         d="m -25.28769,15.610415 q -0.534699,0 -1.009029,-0.181108 -0.47433,-0.189732 -0.836546,-0.551948 -0.353591,-0.362215 -0.560571,-0.896914 -0.206981,-0.543324 -0.206981,-1.250506 0,-0.698559 0.215605,-1.241882 0.215604,-0.551948 0.57782,-0.931412 0.362215,-0.379464 0.845169,-0.5778197 0.482955,-0.1983561 1.017654,-0.1983561 0.543323,0 0.974532,0.2242288 0.431209,0.215604 0.715807,0.508826 l -0.672686,0.810673 q -0.215605,-0.198356 -0.457082,-0.319094 -0.232852,-0.129363 -0.534699,-0.129363 -0.284598,0 -0.543323,0.129363 -0.250101,0.120738 -0.439833,0.353591 -0.181108,0.232853 -0.293222,0.569196 -0.103491,0.336343 -0.103491,0.758928 0,0.871042 0.37084,1.353996 0.37084,0.47433 0.991781,0.47433 0.344967,0 0.612317,-0.146611 0.275973,-0.155235 0.482954,-0.379464 l 0.672686,0.793425 q -0.707183,0.827921 -1.819702,0.827921 z"
         style="font-style:normal;font-variant:normal;font-weight:bold;font-stretch:normal;font-size:8.62418px;font-family:'Source Sans Pro';-inkscape-font-specification:'Source Sans Pro Bold';text-align:end;text-anchor:end;fill:#db2777;fill-opacity:1;stroke-width:0.269929;stroke-miterlimit:4;stroke-dasharray:none"
         id="path968" />
      <path
         d="m -21.294705,12.660945 -0.137987,0.517451 h 1.198761 l -0.129363,-0.517451 q -0.120738,-0.422585 -0.232853,-0.896914 -0.112114,-0.47433 -0.224228,-0.914163 h -0.0345 q -0.10349,0.448457 -0.215605,0.922787 -0.10349,0.465705 -0.224228,0.88829 z m -2.035307,2.84598 1.759333,-5.6229656 h 1.52648 l 1.759332,5.6229656 h -1.345372 l -0.344967,-1.336748 h -1.716212 l -0.344967,1.336748 z"
         style="font-style:normal;font-variant:normal;font-weight:bold;font-stretch:normal;font-size:8.62418px;font-family:'Source Sans Pro';-inkscape-font-specification:'Source Sans Pro Bold';text-align:end;text-anchor:end;fill:#db2777;fill-opacity:1;stroke-width:0.269929;stroke-miterlimit:4;stroke-dasharray:none"
         id="path970" />
      <path
         d="M -17.67255,15.506925 V 9.8839594 h 1.931817 q 0.465705,0 0.871042,0.094866 0.405336,0.086242 0.707183,0.3018466 0.301846,0.20698 0.474329,0.560571 0.181108,0.344968 0.181108,0.853794 0,0.491578 -0.181108,0.853794 -0.172483,0.362215 -0.474329,0.595068 -0.301847,0.232853 -0.698559,0.344968 -0.396712,0.112114 -0.84517,0.112114 h -0.698558 v 1.905944 z m 1.267755,-2.914973 h 0.620941 q 1.034901,0 1.034901,-0.896915 0,-0.439833 -0.275973,-0.620941 -0.275974,-0.181108 -0.793425,-0.181108 h -0.586444 z"
         style="font-style:normal;font-variant:normal;font-weight:bold;font-stretch:normal;font-size:8.62418px;font-family:'Source Sans Pro';-inkscape-font-specification:'Source Sans Pro Bold';text-align:end;text-anchor:end;fill:#db2777;fill-opacity:1;stroke-width:0.269929;stroke-miterlimit:4;stroke-dasharray:none"
         id="path972" />
      <path
         d="M -12.53255,15.506925 V 9.8839594 h 3.5186651 v 1.0693986 h -2.2509111 v 1.129767 h 1.9145681 v 1.060774 h -1.9145681 v 1.293627 h 2.3371529 v 1.069399 z"
         style="font-style:normal;font-variant:normal;font-weight:bold;font-stretch:normal;font-size:8.62418px;font-family:'Source Sans Pro';-inkscape-font-specification:'Source Sans Pro Bold';text-align:end;text-anchor:end;fill:#db2777;fill-opacity:1;stroke-width:0.269929;stroke-miterlimit:4;stroke-dasharray:none"
         id="path974" />
      <path
         d="m -6.0903005,15.610415 q -0.5519475,0 -1.103895,-0.198356 -0.5433234,-0.206981 -0.9745324,-0.612317 L -7.4442968,13.9287 q 0.3018463,0.258725 0.6640619,0.422585 0.3708397,0.163859 0.7244311,0.163859 0.3967123,0 0.5864442,-0.146611 0.1983562,-0.146611 0.1983562,-0.396712 0,-0.129363 -0.060369,-0.224229 -0.051745,-0.09487 -0.1638594,-0.163859 -0.1034902,-0.07762 -0.2587254,-0.137987 -0.1466111,-0.06899 -0.3277188,-0.146611 l -0.7330553,-0.310471 q -0.2156045,-0.08624 -0.4225848,-0.224229 -0.1983562,-0.137986 -0.3622156,-0.319094 -0.1552352,-0.189732 -0.2501012,-0.431209 -0.094866,-0.250101 -0.094866,-0.560572 0,-0.344967 0.1466111,-0.646813 0.146611,-0.310471 0.4139606,-0.5347 0.2673496,-0.232852 0.6295651,-0.3622151 0.3708398,-0.1293627 0.8106729,-0.1293627 0.4915783,0 0.9659082,0.189732 0.4829541,0.1897318 0.8451696,0.5519478 l -0.6468135,0.802048 q -0.2759737,-0.215604 -0.5519475,-0.327718 -0.2759737,-0.120739 -0.6123168,-0.120739 -0.3277188,0 -0.5260749,0.137987 -0.189732,0.129363 -0.189732,0.37084 0,0.129362 0.060369,0.224228 0.068993,0.08624 0.1811077,0.16386 0.1207386,0.06899 0.2759738,0.137987 0.1552352,0.06037 0.336343,0.137987 l 0.7244311,0.293222 q 0.5174508,0.20698 0.8106729,0.569195 0.3018463,0.362216 0.3018463,0.957284 0,0.353592 -0.146611,0.672686 -0.1379869,0.310471 -0.4139607,0.551948 -0.2673495,0.232853 -0.6640618,0.379464 -0.3967123,0.137987 -0.8969147,0.137987 z"
         style="font-style:normal;font-variant:normal;font-weight:bold;font-stretch:normal;font-size:8.62418px;font-family:'Source Sans Pro';-inkscape-font-specification:'Source Sans Pro Bold';text-align:end;text-anchor:end;fill:#db2777;fill-opacity:1;stroke-width:0.269929;stroke-miterlimit:4;stroke-dasharray:none"
         id="path976" />
    </g>
    <text
       xml:space="preserve"
       style="font-style:normal;font-variant:normal;font-weight:normal;font-stretch:normal;font-size:8.62417px;line-height:0.95;font-family:'Source Sans Pro';-inkscape-font-specification:'Source Sans Pro';fill:#db2777;fill-opacity:1;stroke:none;stroke-width:0.269928;stroke-miterlimit:4;stroke-dasharray:none"
       x="41.303635"
       y="32.713963"
       id="text842-6"><tspan
         sodipodi:role="line"
         id="tspan840-6"
         x="41.303635"
         y="32.713963"
         style="font-style:normal;font-variant:normal;font-weight:bold;font-stretch:normal;font-size:8.62417px;font-family:'Source Sans Pro';-inkscape-font-specification:'Source Sans Pro Bold';text-align:end;text-anchor:end;fill:#db2777;fill-opacity:1;stroke-width:0.269928;stroke-miterlimit:4;stroke-dasharray:none">MIS</tspan><tspan
         sodipodi:role="line"
         x="41.303635"
         y="40.906925"
         style="font-style:normal;font-variant:normal;font-weight:bold;font-stretch:normal;font-size:8.62417px;font-family:'Source Sans Pro';-inkscape-font-specification:'Source Sans Pro Bold';text-align:end;text-anchor:end;fill:#db2777;fill-opacity:1;stroke-width:0.269928;stroke-miterlimit:4;stroke-dasharray:none"
         id="tspan844-4">ESCAPES</tspan></text>
  </g>
</svg>
